<?xml version="1.0" encoding="iso-8859-1"?>
<!-- Generator: Adobe Illustrator 16.0.0, SVG Export Plug-In . SVG Version: 6.00 Build 0)  -->
<!DOCTYPE svg PUBLIC "-//W3C//DTD SVG 1.1//EN" "http://www.w3.org/Graphics/SVG/1.1/DTD/svg11.dtd">
<svg version="1.1" id="Capa_1" xmlns="http://www.w3.org/2000/svg" xmlns:xlink="http://www.w3.org/1999/xlink" x="0px" y="0px"
	 width="64px" height="64px" viewBox="0 0 64 64" style="enable-background:new 0 0 64 64;" xml:space="preserve">
<g>
	<g>
		<g id="circle_35_">
			<g>
				<path d="M32,35c2.209,0,4-1.791,4-4v-9c0-2.209-1.791-4-4-4s-4,1.791-4,4v9C28,33.209,29.791,35,32,35z M32,0
					C14.327,0,0,14.327,0,32s14.327,32,32,32s32-14.327,32-32S49.673,0,32,0z M26,22c0-3.313,2.687-6,6-6c3.312,0,6,2.687,6,6v9
					c0,3.312-2.688,6-6,6c-3.313,0-6-2.688-6-6V22z M33,40.949V46h3c0.553,0,1,0.448,1,1c0,0.553-0.447,1-1,1h-8
					c-0.553,0-1-0.447-1-1c0-0.552,0.447-1,1-1h3v-5.051c-5.053-0.502-9-4.764-9-9.949c0-0.553,0.447-1,1-1s1,0.447,1,1
					c0,4.418,3.582,8,8,8s8-3.582,8-8c0-0.553,0.447-1,1-1s1,0.447,1,1C42,36.186,38.053,40.447,33,40.949z"/>
			</g>
		</g>
	</g>
</g>
<g>
</g>
<g>
</g>
<g>
</g>
<g>
</g>
<g>
</g>
<g>
</g>
<g>
</g>
<g>
</g>
<g>
</g>
<g>
</g>
<g>
</g>
<g>
</g>
<g>
</g>
<g>
</g>
<g>
</g>
</svg>
